<?xml version="1.0" standalone="no"?>
<!DOCTYPE svg PUBLIC "-//W3C//DTD SVG 20010904//EN"
 "http://www.w3.org/TR/2001/REC-SVG-20010904/DTD/svg10.dtd">
<svg version="1.0" xmlns="http://www.w3.org/2000/svg"
 width="178.000000pt" height="65.000000pt" viewBox="0 0 178.000000 65.000000"
 preserveAspectRatio="xMidYMid meet">

<g transform="translate(0.000000,65.000000) scale(0.100000,-0.100000)"
fill="#fb5662" stroke="none">
<path d="M358 583 l-77 -4 -112 -137 c-62 -75 -119 -145 -127 -154 -13 -15
-13 -26 -1 -78 l13 -60 128 0 128 0 0 -45 0 -45 85 0 85 0 0 45 c0 43 1 45 30
45 l30 0 0 60 0 60 -30 0 -30 0 0 154 c0 131 -2 155 -16 160 -9 3 -19 5 -22 4
-4 -1 -42 -4 -84 -5z m-48 -248 l0 -75 -54 0 c-30 0 -57 3 -60 8 -4 6 101 142
110 142 2 0 4 -34 4 -75z"/>
<path d="M607 583 c-16 -4 -17 -23 -15 -261 l3 -257 288 -3 287 -2 0 259 0
259 -31 6 c-35 7 -504 6 -532 -1z m63 -58 c0 -8 -7 -15 -15 -15 -8 0 -15 7
-15 15 0 8 7 15 15 15 8 0 15 -7 15 -15z m55 6 c7 -12 -12 -24 -25 -16 -11 7
-4 25 10 25 5 0 11 -4 15 -9z m403 -8 c-3 -16 -20 -18 -188 -18 -168 0 -185 2
-188 18 -3 16 11 17 188 17 177 0 191 -1 188 -17z m0 -240 l-3 -178 -234 -3
c-181 -2 -236 1 -243 10 -9 16 -11 332 -1 341 3 4 114 7 245 7 l238 0 -2 -177z"/>
<path d="M750 371 c0 -5 6 -11 13 -14 9 -3 9 -8 -2 -21 -17 -21 -7 -33 14 -16
12 10 18 10 30 0 9 -8 15 -9 15 -2 0 6 -5 14 -10 17 -8 5 -7 11 1 21 15 19 4
30 -15 15 -10 -8 -16 -9 -21 -1 -8 12 -25 13 -25 1z"/>
<path d="M950 371 c0 -6 5 -13 11 -17 8 -4 8 -9 0 -17 -17 -17 -13 -31 4 -17
12 10 18 10 30 0 19 -16 32 -5 17 13 -9 10 -9 16 0 25 16 16 2 28 -16 13 -10
-8 -16 -9 -21 -1 -8 13 -25 13 -25 1z"/>
<path d="M800 244 c0 -7 8 -10 20 -7 37 10 68 -5 72 -34 7 -62 71 -54 76 11 3
33 1 36 -25 37 -126 5 -143 4 -143 -7z m150 -40 c0 -17 -6 -24 -20 -24 -14 0
-20 7 -20 23 0 13 3 26 6 30 12 12 34 -6 34 -29z"/>
<path d="M1560 582 l-95 -3 -115 -142 c-63 -77 -119 -148 -123 -158 -5 -9 -4
-40 3 -73 l11 -56 130 0 129 0 0 -45 0 -45 79 0 80 0 3 43 c3 39 5 42 36 45
l32 3 0 59 0 59 -32 3 -33 3 -5 155 -5 155 -95 -3z m-62 -244 l-3 -73 -49 -3
c-27 -2 -52 0 -57 5 -8 8 89 141 104 142 4 1 7 -32 5 -71z"/>
</g>
</svg>
